<svg width="24" height="26" viewBox="0 0 24 26" fill="none" xmlns="http://www.w3.org/2000/svg">
<path d="M11.9985 20.4829C10.8319 20.4829 9.71729 20.6652 8.65479 21.0298C7.59229 21.3944 6.62354 21.9412 5.74854 22.6704V22.9829H18.2485V22.6704C17.3735 21.9412 16.4048 21.3944 15.3423 21.0298C14.2798 20.6652 13.1652 20.4829 11.9985 20.4829ZM3.24854 21.5454C4.37354 20.4412 5.68083 19.5715 7.17041 18.936C8.65999 18.3006 10.2694 17.9829 11.9985 17.9829C13.7277 17.9829 15.3371 18.3006 16.8267 18.936C18.3162 19.5715 19.6235 20.4412 20.7485 21.5454V5.48291H3.24854V21.5454ZM11.9985 15.4829C10.7902 15.4829 9.75895 15.0558 8.90479 14.2017C8.05062 13.3475 7.62354 12.3162 7.62354 11.1079C7.62354 9.89958 8.05062 8.86833 8.90479 8.01416C9.75895 7.15999 10.7902 6.73291 11.9985 6.73291C13.2069 6.73291 14.2381 7.15999 15.0923 8.01416C15.9465 8.86833 16.3735 9.89958 16.3735 11.1079C16.3735 12.3162 15.9465 13.3475 15.0923 14.2017C14.2381 15.0558 13.2069 15.4829 11.9985 15.4829ZM11.9985 12.9829C12.5194 12.9829 12.9621 12.8006 13.3267 12.436C13.6912 12.0715 13.8735 11.6287 13.8735 11.1079C13.8735 10.5871 13.6912 10.1444 13.3267 9.77979C12.9621 9.4152 12.5194 9.23291 11.9985 9.23291C11.4777 9.23291 11.035 9.4152 10.6704 9.77979C10.3058 10.1444 10.1235 10.5871 10.1235 11.1079C10.1235 11.6287 10.3058 12.0715 10.6704 12.436C11.035 12.8006 11.4777 12.9829 11.9985 12.9829ZM3.24854 25.4829C2.56104 25.4829 1.97249 25.2381 1.48291 24.7485C0.993327 24.259 0.748535 23.6704 0.748535 22.9829V5.48291C0.748535 4.79541 0.993327 4.20687 1.48291 3.71729C1.97249 3.2277 2.56104 2.98291 3.24854 2.98291H4.49854V0.48291H6.99854V2.98291H16.9985V0.48291H19.4985V2.98291H20.7485C21.436 2.98291 22.0246 3.2277 22.5142 3.71729C23.0037 4.20687 23.2485 4.79541 23.2485 5.48291V22.9829C23.2485 23.6704 23.0037 24.259 22.5142 24.7485C22.0246 25.2381 21.436 25.4829 20.7485 25.4829H3.24854Z" fill="#CDCDCD"/>
</svg>
