<svg width="30" height="31" viewBox="0 0 30 31" fill="none" xmlns="http://www.w3.org/2000/svg">
<path d="M22.9531 5.75564L22.9531 26.21C22.9525 26.8125 22.7129 27.3903 22.2868 27.8163C21.8607 28.2424 21.283 28.4821 20.6804 28.4827L16.135 28.4827C15.5324 28.4821 14.9547 28.2424 14.5286 27.8163C14.1025 27.3903 13.8629 26.8125 13.8623 26.21L13.8623 5.75564C13.8629 5.15306 14.1025 4.57534 14.5286 4.14926C14.9547 3.72317 15.5324 3.48353 16.135 3.48293L20.6804 3.48293C21.283 3.48353 21.8607 3.72317 22.2868 4.14926C22.7129 4.57534 22.9525 5.15306 22.9531 5.75564ZM16.135 26.21L20.6804 26.21L20.6804 5.75564L16.135 5.75564L16.135 26.21ZM16.135 5.75564L16.135 26.21C16.1344 26.8125 15.8948 27.3902 15.4687 27.8163C15.0426 28.2424 14.4649 28.482 13.8623 28.4826L9.31689 28.4826C8.71431 28.482 8.13659 28.2424 7.71051 27.8163C7.28442 27.3902 7.04479 26.8125 7.04418 26.2099L7.04418 5.75561C7.04478 5.15304 7.28442 4.57532 7.71051 4.14923C8.13659 3.72315 8.71431 3.48351 9.31689 3.48291L13.8623 3.48291C14.4649 3.48351 15.0426 3.72315 15.4687 4.14923C15.8948 4.57532 16.1344 5.15306 16.135 5.75564ZM9.31689 26.2099L13.8623 26.21L13.8623 5.75564L9.31689 5.75561L9.31689 26.2099ZM9.31689 5.75561L9.31689 26.2099C9.31629 26.8125 9.07665 27.3902 8.65056 27.8163C8.22448 28.2424 7.64676 28.482 7.04418 28.4826L2.49878 28.4826C1.8962 28.482 1.31848 28.2424 0.892398 27.8163C0.466314 27.3902 0.226676 26.8125 0.226074 26.2099L0.226073 5.75561C0.226675 5.15304 0.466313 4.57532 0.892397 4.14923C1.31848 3.72315 1.8962 3.48351 2.49878 3.48291L7.04418 3.48291C7.64676 3.48351 8.22448 3.72315 8.65056 4.14923C9.07665 4.57532 9.31629 5.15304 9.31689 5.75561ZM2.49878 26.2099L7.04418 26.2099L7.04418 5.75561L2.49878 5.75561L2.49878 26.2099Z" fill="#CDCDCD"/>
<path d="M29.7712 5.75589L29.7712 26.2102C29.7706 26.8128 29.531 27.3905 29.1049 27.8166C28.6788 28.2427 28.1011 28.4823 27.4985 28.4829L22.9531 28.4829C22.3505 28.4823 21.7728 28.2427 21.3467 27.8166C20.9206 27.3905 20.681 26.8125 20.6804 26.21L20.6804 5.75564C20.681 5.15306 20.9206 4.57559 21.3467 4.14951C21.7728 3.72342 22.3505 3.48379 22.9531 3.48318L27.4985 3.48318C28.1011 3.48379 28.6788 3.72342 29.1049 4.14951C29.531 4.57559 29.7706 5.15331 29.7712 5.75589ZM22.9531 26.21L27.4985 26.2102L27.4985 5.75589L22.9531 5.75564L22.9531 26.21Z" fill="#CDCDCD"/>
</svg>
