<svg width="26" height="26" viewBox="0 0 26 26" fill="none" xmlns="http://www.w3.org/2000/svg">
<path d="M2.62506 25.1853C1.95433 25.1853 1.38014 24.9465 0.902499 24.4688C0.424856 23.9912 0.186035 23.417 0.186035 22.7462V5.67308C0.186035 5.00235 0.424856 4.42816 0.902499 3.95052C1.38014 3.47287 1.95433 3.23405 2.62506 3.23405H13.5092L11.0702 5.67308H2.62506V22.7462H19.6982V14.2706L22.1373 11.8316V22.7462C22.1373 23.417 21.8984 23.9912 21.4208 24.4688C20.9431 24.9465 20.369 25.1853 19.6982 25.1853H2.62506ZM16.2531 3.93527L17.9909 5.64259L9.94213 13.6914V15.4292H11.6495L19.7287 7.34991L21.4665 9.05722L13.3873 17.1365C13.1637 17.3601 12.9045 17.5379 12.6098 17.67C12.3151 17.8021 12.0051 17.8682 11.6799 17.8682H8.72262C8.37709 17.8682 8.08746 17.7513 7.85372 17.5176C7.61998 17.2839 7.50311 16.9942 7.50311 16.6487V13.6914C7.50311 13.3662 7.56408 13.0562 7.68604 12.7615C7.80799 12.4668 7.98075 12.2076 8.20433 11.9841L16.2531 3.93527ZM21.4665 9.05722L16.2531 3.93527L19.3019 0.886492C19.7897 0.398688 20.374 0.154785 21.0549 0.154785C21.7358 0.154785 22.31 0.398688 22.7775 0.886492L24.4848 2.6243C24.9523 3.09178 25.186 3.66088 25.186 4.33161C25.186 5.00235 24.9523 5.57145 24.4848 6.03893L21.4665 9.05722Z" fill="#CDCDCD" />
</svg>
